#!OML:ASF X:\für Bonn\!DataBase\2005_08_12_Daniel\c3d\Daniel.ASF
:FULLY-SPECIFIED
:DEGREES
162
root -3.54661 15.7179 -1.33109 -313.39 -89.4077 298.911
lowerback 33.8387 -2.79218 4.0728
upperback 2.7191 -2.80224 -2.00657
thorax -14.6426 -1.70044 -3.14438
lowerneck 1.70582 3.6091 -1.3126
upperneck 1.95068 4.79237 -3.27974
head 0.365939 2.36076 -0.788153
rclavicle -2.25124e-014 -3.97569e-015
rhumerus 60.0642 2.76742 -103.487
rradius 6.55909
rwrist 69.4497
rhand -23.8618 6.57843
rfingers 7.12502
rthumb 2.61084 -23.3853
lclavicle -2.25124e-014 -3.97569e-015
lhumerus 59.3978 4.19707 98.5082
lradius 8.96647
lwrist -75.5425
lhand -17.774 3.76328
lfingers 7.12502
lthumb 8.48844 33.5727
rfemur -20.1283 -20.4958 7.87908
rtibia 68.4791
rfoot 355.192 15.5496
rtoes -2.80259
lfemur -560.283 168.781 -187.887
ltibia 66.0634
lfoot -17.9622 -18.2803
ltoes 6.11903
163
root -3.5647 15.8388 -1.33868 -311.781 -89.3894 297.622
lowerback 33.2191 -2.76528 4.05093
upperback 2.54914 -2.77525 -1.99519
thorax -14.582 -1.68203 -3.14987
lowerneck 1.62522 3.61699 -1.25867
upperneck 2.19515 4.812 -3.25041
head 0.45438 2.36555 -0.783916
rclavicle -6.4605e-015 9.93923e-015
rhumerus 59.8698 2.73936 -103.371
rradius 6.50025
rwrist 69.2984
rhand -23.939 6.67584
rfingers 7.12502
rthumb 2.53623 -23.2888
lclavicle -6.4605e-015 9.93923e-015
lhumerus 59.2262 4.24038 98.4777
lradius 8.94944
lwrist -75.3054
lhand -17.5217 3.68479
lfingers 7.12502
lthumb 8.73194 33.4842
rfemur -19.2284 -20.0714 8.25062
rtibia 66.55
rfoot 355.003 15.0999
rtoes -2.3593
lfemur -559.451 169.361 -188.15
ltibia 64.2244
lfoot -18.0369 -17.5158
ltoes 5.77043
164
root -3.58406 15.9562 -1.3461 -310.514 -89.3961 296.655
lowerback 32.6127 -2.7371 4.00903
upperback 2.38036 -2.75697 -2.00043
thorax -14.5226 -1.66717 -3.15844
lowerneck 1.55144 3.62609 -1.21134
upperneck 2.40981 4.83176 -3.20517
head 0.532206 2.37125 -0.77425
rclavicle -3.59303e-014 -1.94809e-014
rhumerus 59.6203 2.71478 -103.274
rradius 6.52238
rwrist 69.1142
rhand -23.9352 6.84797
rfingers 7.12502
rthumb 2.53993 -23.1167
lclavicle -3.59303e-014 -1.94809e-014
lhumerus 59.0934 4.27649 98.4335
lradius 8.90253
lwrist -75.0429
lhand -17.2668 3.57922
lfingers 7.12502
lthumb 8.97791 33.3682
rfemur -18.299 -19.6339 8.58416
rtibia 64.624
rfoot 354.763 14.6449
rtoes -1.85812
lfemur -558.606 169.955 -188.442
ltibia 62.4164
lfoot -18.1857 -16.651
ltoes 5.32676
165
root -3.60511 16.0692 -1.35432 -309.26 -89.3934 295.713
lowerback 31.9704 -2.70815 3.94002
upperback 2.21167 -2.74375 -1.97622
thorax -14.4408 -1.65187 -3.11895
lowerneck 1.46518 3.64206 -1.1943
upperneck 2.64985 4.86087 -3.17838
head 0.61991 2.38052 -0.764852
rclavicle 9.44227e-015 7.95139e-015
rhumerus 59.3536 2.68439 -103.131
rradius 6.57138
rwrist 68.9554
rhand -23.8568 7.055
rfingers 7.12502
rthumb 2.61565 -22.9087
lclavicle 9.44227e-015 7.95139e-015
lhumerus 58.9847 4.35914 98.4091
lradius 8.82482
lwrist -74.751
lhand -17.0371 3.53345
lfingers 7.12502
lthumb 9.19958 33.3128
rfemur -17.3827 -19.1865 8.94371
rtibia 62.7209
rfoot 354.4 14.138
rtoes -1.51444
lfemur -557.791 170.598 -188.719
ltibia 60.6445
lfoot -18.3329 -15.786
ltoes 4.94419
166
root -3.62573 16.1742 -1.36233 -307.183 -89.4009 293.926
lowerback 31.3714 -2.67599 3.8893
upperback 2.01693 -2.72108 -1.97607
thorax -14.4053 -1.63497 -3.11804
lowerneck 1.4606 3.65419 -1.13574
upperneck 2.85441 4.88173 -3.13071
head 0.683864 2.38774 -0.757802
rclavicle 1.09332e-015 5.1684e-015
rhumerus 59.0109 2.60623 -103.007
rradius 6.67277
rwrist 68.7639
rhand -23.7661 7.23142
rfingers 7.12502
rthumb 2.70326 -22.7312
lclavicle 1.09332e-015 5.1684e-015
lhumerus 58.8204 4.40148 98.367
lradius 8.76435
lwrist -74.5209
lhand -16.8163 3.50386
lfingers 7.12502
lthumb 9.41264 33.2737
rfemur -16.4713 -18.733 9.28446
rtibia 60.8403
rfoot 354.056 13.6765
rtoes -1.15554
lfemur -556.979 171.256 -189
ltibia 58.9208
lfoot -18.5331 -14.8732
ltoes 4.34809
167
root -3.64516 16.2746 -1.37051 -305.857 -89.4018 292.89
lowerback 30.7685 -2.64811 3.847
upperback 1.82615 -2.70234 -1.9809
thorax -14.3605 -1.62066 -3.12543
lowerneck 1.43886 3.65552 -1.10202
upperneck 3.06285 4.888 -3.07721
head 0.751011 2.38731 -0.744604
rclavicle 2.6339e-015 1.43125e-014
rhumerus 58.6748 2.538 -102.895
rradius 6.80252
rwrist 68.6602
rhand -23.6247 7.40279
rfingers 7.12502
rthumb 2.83979 -22.558
lclavicle 2.6339e-015 1.43125e-014
lhumerus 58.6795 4.44203 98.3137
lradius 8.68614
lwrist -74.2893
lhand -16.6595 3.44851
lfingers 7.12502
lthumb 9.56387 33.2115
rfemur -15.5716 -18.2612 9.63194
rtibia 58.9884
rfoot 353.628 13.2129
rtoes -0.925248
lfemur -556.198 171.982 -189.283
ltibia 57.2454
lfoot -18.7242 -13.9433
ltoes 3.9724
168
root -3.66186 16.3675 -1.37881 -304.76 -89.4147 292.083
lowerback 30.1904 -2.61605 3.78234
upperback 1.62861 -2.68472 -1.98287
thorax -14.3296 -1.60586 -3.11614
lowerneck 1.44132 3.65945 -1.0769
upperneck 3.22476 4.89554 -3.01194
head 0.799379 2.38874 -0.727284
rclavicle -1.36664e-014 1.11319e-014
rhumerus 58.3142 2.44803 -102.759
rradius 6.96708
rwrist 68.5228
rhand -23.5059 7.63166
rfingers 7.12502
rthumb 2.95458 -22.3276
lclavicle -1.36664e-014 1.11319e-014
lhumerus 58.555 4.47662 98.2735
lradius 8.61577
lwrist -74.0622
lhand -16.5467 3.44757
lfingers 7.12502
lthumb 9.67269 33.2055
rfemur -14.7037 -17.7716 9.97392
rtibia 57.1661
rfoot 353.101 12.7869
rtoes -0.950826
lfemur -555.472 172.723 -189.583
ltibia 55.6287
lfoot -18.9761 -12.9533
ltoes 3.3325
